<?xml version="1.0" encoding="UTF-8" standalone="no"?>
<!-- Created with Inkscape (http://www.inkscape.org/) -->

<svg
   width="9698.2314"
   height="798.69739"
   viewBox="0 0 2565.9904 211.32201"
   version="1.1"
   id="svg5"
   inkscape:export-filename="..\..\Git\repositories\website301\arrow.svg"
   inkscape:export-xdpi="2.4000001"
   inkscape:export-ydpi="2.4000001"
   inkscape:version="1.2 (dc2aedaf03, 2022-05-15)"
   sodipodi:docname="drawing.svg"
   xmlns:inkscape="http://www.inkscape.org/namespaces/inkscape"
   xmlns:sodipodi="http://sodipodi.sourceforge.net/DTD/sodipodi-0.dtd"
   xmlns="http://www.w3.org/2000/svg"
   xmlns:svg="http://www.w3.org/2000/svg">
  <sodipodi:namedview
     id="namedview7"
     pagecolor="#505050"
     bordercolor="#eeeeee"
     borderopacity="1"
     inkscape:showpageshadow="0"
     inkscape:pageopacity="0"
     inkscape:pagecheckerboard="true"
     inkscape:deskcolor="#505050"
     inkscape:document-units="mm"
     showgrid="false"
     showborder="true"
     borderlayer="true"
     inkscape:zoom="0.040204474"
     inkscape:cx="2823.0689"
     inkscape:cy="4327.8766"
     inkscape:window-width="1920"
     inkscape:window-height="1009"
     inkscape:window-x="-8"
     inkscape:window-y="-8"
     inkscape:window-maximized="1"
     inkscape:current-layer="svg5" />
  <defs
     id="defs2">
    <inkscape:path-effect
       effect="mirror_symmetry"
       start_point="2396.5327,-987.93938"
       end_point="2396.5327,3346.4366"
       center_point="2396.5327,1179.2486"
       id="path-effect1162"
       is_visible="true"
       lpeversion="1.2"
       lpesatellites=""
       mode="vertical"
       discard_orig_path="false"
       fuse_paths="false"
       oposite_fuse="false"
       split_items="false"
       split_open="false"
       link_styles="false" />
    <inkscape:path-effect
       effect="powerstroke"
       id="path-effect1158"
       is_visible="true"
       lpeversion="1"
       offset_points="0.19560688,11.099978 | 0.53980713,16.953091 | 0.79022639,11.944258"
       not_jump="false"
       sort_points="true"
       interpolator_type="CentripetalCatmullRom"
       interpolator_beta="0.2"
       start_linecap_type="zerowidth"
       linejoin_type="round"
       miter_limit="4"
       scale_width="1"
       end_linecap_type="zerowidth" />
    <inkscape:path-effect
       effect="mirror_symmetry"
       start_point="1121.5356,-949.42025"
       end_point="1121.5356,3384.9557"
       center_point="1121.5356,1217.7677"
       id="path-effect1152"
       is_visible="true"
       lpeversion="1.2"
       lpesatellites=""
       mode="vertical"
       discard_orig_path="false"
       fuse_paths="false"
       oposite_fuse="false"
       split_items="false"
       split_open="false"
       link_styles="false" />
    <inkscape:path-effect
       effect="powerstroke"
       id="path-effect1148"
       is_visible="true"
       lpeversion="1"
       offset_points="0.19704794,15.860192 | 0.53980713,16.953091 | 0.79022639,11.944258"
       not_jump="false"
       sort_points="true"
       interpolator_type="CentripetalCatmullRom"
       interpolator_beta="0.2"
       start_linecap_type="zerowidth"
       linejoin_type="round"
       miter_limit="4"
       scale_width="1"
       end_linecap_type="zerowidth" />
    <inkscape:path-effect
       effect="mirror_symmetry"
       start_point="1288.0988,-835.56688"
       end_point="1288.0988,3498.8091"
       center_point="1288.0988,1331.6211"
       id="path-effect1064"
       is_visible="true"
       lpeversion="1.2"
       lpesatellites=""
       mode="vertical"
       discard_orig_path="false"
       fuse_paths="false"
       oposite_fuse="false"
       split_items="false"
       split_open="false"
       link_styles="false" />
    <inkscape:path-effect
       effect="powerstroke"
       id="path-effect1058"
       is_visible="true"
       lpeversion="1"
       offset_points="0.45579911,9.9723886 | 0.92118229,18.974569 | 1.5943545,14.458353"
       not_jump="false"
       sort_points="true"
       interpolator_type="CentripetalCatmullRom"
       interpolator_beta="0.2"
       start_linecap_type="zerowidth"
       linejoin_type="round"
       miter_limit="4"
       scale_width="1"
       end_linecap_type="zerowidth" />
    <inkscape:path-effect
       effect="taper_stroke"
       id="path-effect2859"
       is_visible="true"
       lpeversion="1"
       stroke_width="59.3232"
       attach_start="1.3862091"
       end_offset="0.25174446"
       start_smoothing="0.5"
       end_smoothing="0.5"
       jointype="extrapolated"
       start_shape="center"
       end_shape="center"
       miter_limit="100" />
    <inkscape:path-effect
       effect="taper_stroke"
       id="path-effect2857"
       is_visible="true"
       lpeversion="1"
       stroke_width="49.750259"
       attach_start="0.54780027"
       end_offset="0.54571574"
       start_smoothing="0.5"
       end_smoothing="0.5"
       jointype="extrapolated"
       start_shape="center"
       end_shape="center"
       miter_limit="100" />
    <inkscape:path-effect
       effect="mirror_symmetry"
       start_point="-20.100341,1322.9167"
       end_point="2894.9029,1322.9167"
       center_point="1437.4013,1322.9167"
       id="path-effect2242"
       is_visible="true"
       lpeversion="1.2"
       lpesatellites=""
       mode="horizontal"
       discard_orig_path="false"
       fuse_paths="true"
       oposite_fuse="true"
       split_items="false"
       split_open="false"
       link_styles="false" />
    <inkscape:path-effect
       effect="mirror_symmetry"
       start_point="-88.062925,1322.9166"
       end_point="3903.1011,1322.9166"
       center_point="1907.5191,1322.9166"
       id="path-effect1512"
       is_visible="true"
       lpeversion="1.2"
       lpesatellites=""
       mode="horizontal"
       discard_orig_path="false"
       fuse_paths="false"
       oposite_fuse="false"
       split_items="false"
       split_open="false"
       link_styles="false" />
    <inkscape:path-effect
       effect="mirror_symmetry"
       start_point="-1756.7493,1322.9167"
       end_point="1339.5652,1322.9167"
       center_point="-208.59209,1322.9167"
       id="path-effect1506"
       is_visible="true"
       lpeversion="1.2"
       lpesatellites=""
       mode="horizontal"
       discard_orig_path="false"
       fuse_paths="true"
       oposite_fuse="true"
       split_items="false"
       split_open="false"
       link_styles="false" />
    <inkscape:path-effect
       effect="mirror_symmetry"
       start_point="-88.062925,1322.9166"
       end_point="3903.1011,1322.9166"
       center_point="1907.5191,1322.9166"
       id="path-effect1350"
       is_visible="true"
       lpeversion="1.2"
       lpesatellites=""
       mode="horizontal"
       discard_orig_path="false"
       fuse_paths="false"
       oposite_fuse="false"
       split_items="false"
       split_open="false"
       link_styles="false" />
  </defs>
  <g
     inkscape:label="divide"
     inkscape:groupmode="layer"
     id="layer1"
     style="display:inline"
     transform="translate(-39.921517,-1240.4216)">
    <g
       id="g563"
       transform="matrix(0.61043005,0,0,0.61043005,515.36858,515.36859)">
      <path
         id="path3081"
         style="fill:#141313;fill-opacity:1;fill-rule:nonzero;stroke:none;stroke-width:23.5327;stroke-linecap:round;stroke-linejoin:round;stroke-dashoffset:1699.05;stroke-opacity:0.501754"
         d="m 1571.0922,1458.0594 c 0.9296,-9.4495 2.1089,-24.0894 1.184,-41.9943 -0.9367,-18.1314 -3.9509,-38.1062 -10.3653,-58.9725 -7.4169,-24.1272 -18.4502,-46.3518 -32.0709,-65.492 -5.4649,-7.6796 -11.4905,-15.1691 -18.0743,-22.3907 -22.3275,-24.4903 -50.6182,-45.3809 -83.7496,-59.9161 -32.2338,-14.1414 -67.8661,-21.7393 -105.0999,-21.515 -36.3513,0.219 -71.8499,8.0941 -104.4678,23.0091 -32.8377,15.0157 -60.5704,36.1546 -82.4664,60.3374 -10.2066,11.2727 -18.9542,22.9899 -26.3519,34.7903 -9.8873,15.7717 -18.0817,33.2271 -24.1258,51.8464 -6.6715,20.5528 -10.0261,40.343 -11.2724,58.4456 -1.2299,17.8657 -0.2923,32.4955 0.5082,41.8518 0.8063,-9.4235 2.7477,-23.7444 7.316,-40.5446 4.6314,-17.0327 11.4206,-34.68 20.9257,-52.3604 8.6056,-16.0074 18.4965,-30.3028 29.0959,-43.199 7.9207,-9.6371 16.8314,-19.0343 26.7989,-27.9354 21.3885,-19.1005 46.7007,-35.0623 75.3049,-46.0347 28.3706,-10.8831 58.2967,-16.2149 88.7346,-15.9965 31.1786,0.2237 60.8513,6.4705 88.1028,17.4907 28.0428,11.3401 52.864,27.4573 74.0215,46.4558 6.2495,5.6119 12.1551,11.4522 17.7237,17.4723 13.9208,15.0495 27.1607,32.2178 38.5036,52.4163 9.7995,17.4505 16.8975,34.9038 21.8234,51.7769 4.8605,16.6491 7.064,30.9341 8.0011,40.4586 z"
         sodipodi:nodetypes="csc"
         inkscape:export-filename="..\..\Git\repositories\website301\divide.svg"
         inkscape:export-xdpi="2.4000001"
         inkscape:export-ydpi="2.4000001" />
      <path
         style="fill:#141313;fill-opacity:1;fill-rule:nonzero;stroke:none;stroke-width:25;stroke-linecap:round;stroke-linejoin:round;stroke-dasharray:none;stroke-dashoffset:1699.05;stroke-opacity:0.501754"
         d="m 1134.1516,2443.0074 c -9.871,6.8557 -26.3782,17.5539 -49.2012,28.7791 -23.116,11.3693 -49.1853,21.5556 -77.6135,29.6455 -0.572,0.1627 -1.1461,0.3248 -1.7224,0.4862 -38.25932,10.7151 -84.09919,17.7171 -127.79299,15.7973 -18.50661,-0.8131 -35.65515,-3.2166 -50.40295,-7.2353 -14.38054,-3.9187 -25.57421,-9.1296 -33.39685,-15.0968 -3.84088,-2.9298 -6.69537,-5.9086 -8.76249,-8.8377 -2.0592,-2.918 -3.39091,-5.8592 -4.1732,-8.8526 -0.62676,-2.3982 -0.95384,-5.033 -0.90447,-7.9676 0.0136,-0.8096 0.056,-1.6561 0.13209,-2.5411 0.34244,-3.9823 1.36974,-8.7997 3.60161,-14.5991 4.53222,-11.7294 10.69441,-22.4253 18.52268,-32.2067 7.52416,-9.4015 16.45401,-17.7885 26.58385,-25.2696 20.73401,-15.3126 44.98459,-25.7062 67.54336,-32.8486 26.12852,-8.2728 50.57502,-12.3232 62.69962,-13.96 0.60369,-0.082 1.19203,-0.159 1.76449,-0.2327 10.22163,-1.3155 17.37775,-2.0152 21.23898,-2.5635 3.91413,-0.5559 4.56775,-0.934 4.58327,-1.2528 v 0 0 c 0.0137,-0.2809 -0.60451,-0.826 -4.54348,-1.4951 -3.83825,-0.652 -11.05076,-1.4225 -21.63241,-1.6947 -0.58755,-0.015 -1.192,-0.03 -1.81254,-0.044 -12.7285,-0.2865 -37.50713,-0.4319 -66.32116,4.406 -24.26715,4.0745 -52.61823,11.8896 -78.36604,26.9472 -12.71283,7.4346 -24.62788,16.5415 -35.02995,27.6269 -10.87676,11.5912 -19.71279,24.9378 -26.10439,40.002 -3.54268,8.3663 -5.64514,16.4488 -6.34078,24.2144 -0.15438,1.7234 -0.23903,3.427 -0.25508,5.1096 -0.0588,6.1707 0.80195,12.1946 2.62364,17.9625 2.29368,7.2624 6.00443,13.7858 10.83756,19.4964 4.76833,5.6341 10.52295,10.3567 16.90451,14.2798 12.71723,7.818 28.31052,12.7045 45.05197,15.4464 17.38879,2.8478 36.52147,3.4666 56.10864,2.3889 46.2835,-2.5464 92.49799,-14.2181 130.58561,-27.692 0.5755,-0.2035 1.1488,-0.4074 1.7198,-0.6115 28.3746,-10.1395 54.0646,-22.2489 76.5509,-35.3015 22.1974,-12.8848 37.9594,-24.7736 47.3233,-32.2855 z m 578.4723,0 c 9.871,6.8557 26.3783,17.5539 49.2012,28.7791 23.116,11.3693 49.1854,21.5556 77.6135,29.6455 0.572,0.1627 1.1462,0.3248 1.7225,0.4862 38.2593,10.7151 84.0991,17.7171 127.7929,15.7973 18.5066,-0.8131 35.6552,-3.2166 50.403,-7.2353 14.3805,-3.9187 25.5742,-9.1296 33.3968,-15.0968 3.8409,-2.9298 6.6954,-5.9086 8.7625,-8.8377 2.0592,-2.918 3.3909,-5.8592 4.1732,-8.8526 0.6268,-2.3982 0.9539,-5.033 0.9045,-7.9676 -0.014,-0.8096 -0.056,-1.6561 -0.1321,-2.5411 -0.3424,-3.9823 -1.3697,-8.7997 -3.6016,-14.5991 -4.5322,-11.7294 -10.6944,-22.4253 -18.5227,-32.2067 -7.5241,-9.4015 -16.454,-17.7885 -26.5838,-25.2696 -20.734,-15.3126 -44.9846,-25.7062 -67.5434,-32.8486 -26.1285,-8.2728 -50.575,-12.3232 -62.6996,-13.96 -0.6037,-0.082 -1.192,-0.159 -1.7645,-0.2327 -10.2216,-1.3155 -17.3778,-2.0152 -21.239,-2.5635 -3.9141,-0.5559 -4.5677,-0.934 -4.5833,-1.2528 v 0 0 c -0.014,-0.2809 0.6046,-0.826 4.5435,-1.4951 3.8383,-0.652 11.0508,-1.4225 21.6324,-1.6947 0.5876,-0.015 1.192,-0.03 1.8126,-0.044 12.7285,-0.2865 37.5071,-0.4319 66.3211,4.406 24.2672,4.0745 52.6183,11.8896 78.3661,26.9472 12.7128,7.4346 24.6279,16.5415 35.0299,27.6269 10.8768,11.5912 19.7128,24.9378 26.1044,40.002 3.5427,8.3663 5.6452,16.4488 6.3408,24.2144 0.1544,1.7234 0.239,3.427 0.2551,5.1096 0.059,6.1707 -0.802,12.1946 -2.6237,17.9625 -2.2936,7.2624 -6.0044,13.7858 -10.8375,19.4964 -4.7684,5.6341 -10.523,10.3567 -16.9045,14.2798 -12.7173,7.818 -28.3106,12.7045 -45.052,15.4464 -17.3888,2.8478 -36.5215,3.4666 -56.1086,2.3889 -46.2835,-2.5464 -92.498,-14.2181 -130.5857,-27.692 -0.5754,-0.2035 -1.1487,-0.4074 -1.7198,-0.6115 -28.3746,-10.1395 -54.0645,-22.2489 -76.5509,-35.3015 -22.1974,-12.8848 -37.9593,-24.7736 -47.3233,-32.2855 z"
         id="path3083"
         sodipodi:nodetypes="czc"
         class="UnoptimicedTransforms"
         transform="matrix(-1.1641986,0,0,-1.1641986,2980.0225,4164.0093)" />
      <path
         style="fill:#141313;fill-opacity:1;fill-rule:nonzero;stroke:none;stroke-width:25;stroke-linecap:round;stroke-linejoin:round;stroke-dasharray:none;stroke-dashoffset:1699.05;stroke-opacity:0.501754"
         d="m 986.8666,2475.1293 c -7.04124,2.9707 -18.80232,7.4644 -34.19133,11.4619 -15.62384,4.0585 -32.80425,7.0479 -51.05591,8.4065 -0.36445,0.027 -0.73037,0.054 -1.09774,0.079 -23.84304,1.6701 -52.26393,0.1835 -78.05924,-7.7344 -10.86719,-3.3357 -20.58236,-7.6249 -28.6772,-12.7662 -7.97383,-5.0645 -13.92378,-10.6663 -17.99678,-16.5176 -4.13363,-5.9384 -6.31662,-12.091 -6.99616,-18.4691 -0.45788,-4.2977 -0.2544,-8.8949 0.65181,-13.8364 0.56565,-3.0845 1.42171,-6.3755 2.62436,-9.8824 1.21471,-3.5743 3.27447,-7.1808 6.39801,-10.8407 3.17259,-3.7174 7.39032,-7.4248 12.73409,-11.0679 10.91734,-7.4429 25.64726,-14.0201 43.2236,-19.7012 17.86957,-5.7759 38.14846,-10.4575 59.36804,-14.2224 21.78524,-3.8653 44.52131,-6.7578 66.64089,-8.8896 7.21847,-0.6957 14.38325,-1.3116 21.44309,-1.8546 36.61087,-2.8159 71.14467,-4.1337 100.83937,-4.9953 22.524,-0.6535 34.8966,-0.8806 44.5444,-1.3588 8.538,-0.4232 10.2853,-0.8946 10.3087,-1.3067 0.022,-0.3797 -1.6619,-1.1364 -10.1582,-2.2751 -8.3224,-1.1153 -23.2563,-2.5728 -44.5738,-3.7797 -29.2019,-1.6533 -65.2058,-2.5298 -101.73653,-1.6312 -7.1623,0.1762 -14.4444,0.4083 -21.79496,0.709 -22.49554,0.9203 -45.85336,2.492 -68.47309,5.1127 -21.97277,2.5458 -43.58754,6.1199 -63.14864,11.1628 -19.02819,4.9055 -36.79451,11.3718 -51.1442,20.0846 -7.12123,4.3239 -13.61823,9.331 -19.03415,15.1685 -5.39732,5.8173 -9.76203,12.5081 -12.5012,20.1274 -1.74552,4.841 -3.04312,9.6476 -3.8723,14.4041 -1.33354,7.6497 -1.47943,15.362 -0.2027,22.9395 1.93825,11.5035 7.00645,21.8247 14.67849,30.5892 7.36941,8.4188 16.81074,15.039 27.3956,20.1026 10.75943,5.147 22.73972,8.7084 35.12484,10.9817 29.24255,5.3673 59.3651,3.4307 83.54148,-0.592 0.37621,-0.063 0.7508,-0.1257 1.12375,-0.1892 18.62962,-3.1712 35.89215,-8.163 51.14622,-14.0241 15.06477,-5.7884 26.25772,-11.6899 32.92739,-15.3952 z m 1293.3965,0 c 7.0412,2.9707 18.8023,7.4644 34.1913,11.4619 15.6238,4.0585 32.8042,7.0479 51.0559,8.4065 0.3645,0.027 0.7304,0.054 1.0977,0.079 23.8431,1.6701 52.264,0.1835 78.0593,-7.7344 10.8672,-3.3357 20.5823,-7.6249 28.6772,-12.7662 7.9738,-5.0645 13.9238,-10.6663 17.9968,-16.5176 4.1336,-5.9384 6.3166,-12.091 6.9961,-18.4691 0.4579,-4.2977 0.2544,-8.8949 -0.6518,-13.8364 -0.5656,-3.0845 -1.4217,-6.3755 -2.6243,-9.8824 -1.2148,-3.5743 -3.2745,-7.1808 -6.3981,-10.8407 -3.1725,-3.7174 -7.3903,-7.4248 -12.734,-11.0679 -10.9174,-7.4429 -25.6473,-14.0201 -43.2236,-19.7012 -17.8696,-5.7759 -38.1485,-10.4575 -59.3681,-14.2224 -21.7852,-3.8653 -44.5213,-6.7578 -66.6409,-8.8896 -7.2184,-0.6957 -14.3832,-1.3116 -21.4431,-1.8546 -36.6108,-2.8159 -71.1446,-4.1337 -100.8394,-4.9953 -22.5239,-0.6535 -34.8965,-0.8806 -44.5443,-1.3588 -8.538,-0.4232 -10.2853,-0.8946 -10.3087,-1.3067 -0.022,-0.3797 1.6619,-1.1364 10.1582,-2.2751 8.3224,-1.1153 23.2563,-2.5728 44.5738,-3.7797 29.2018,-1.6533 65.2057,-2.5298 101.7365,-1.6312 7.1623,0.1762 14.4444,0.4083 21.795,0.709 22.4955,0.9203 45.8533,2.492 68.473,5.1127 21.9728,2.5458 43.5876,6.1199 63.1487,11.1628 19.0282,4.9055 36.7945,11.3718 51.1442,20.0846 7.1212,4.3239 13.6182,9.331 19.0341,15.1685 5.3974,5.8173 9.7621,12.5081 12.5012,20.1274 1.7456,4.841 3.0432,9.6476 3.8723,14.4041 1.3336,7.6497 1.4795,15.362 0.2027,22.9395 -1.9382,11.5035 -7.0064,21.8247 -14.6785,30.5892 -7.3694,8.4188 -16.8107,15.039 -27.3956,20.1026 -10.7594,5.147 -22.7397,8.7084 -35.1248,10.9817 -29.2425,5.3673 -59.3651,3.4307 -83.5415,-0.592 -0.3762,-0.063 -0.7508,-0.1257 -1.1237,-0.1892 -18.6296,-3.1712 -35.8922,-8.163 -51.1462,-14.0241 -15.0648,-5.7884 -26.2578,-11.6899 -32.9274,-15.3952 z"
         id="path3085"
         sodipodi:nodetypes="czc"
         class="UnoptimicedTransforms"
         transform="matrix(-1.1641986,0,0,-1.1641986,3224.7104,4164.0093)" />
      <path
         style="fill:#141313;fill-opacity:1;fill-rule:nonzero;stroke:none;stroke-width:25;stroke-linecap:round;stroke-linejoin:round;stroke-dasharray:none;stroke-dashoffset:1699.05;stroke-opacity:0.501754"
         d="m 960.7429,2450.193 c -7.19945,3.0375 -18.87118,7.3431 -33.79256,10.2284 -15.09182,2.9182 -30.61618,3.8384 -46.14054,2.7046 -0.32127,-0.023 -0.64289,-0.048 -0.96488,-0.074 -22.2351,-1.7664 -45.10427,-8.5823 -63.28692,-20.0411 -7.79654,-4.9134 -14.20683,-10.3777 -18.87982,-15.9975 -4.48781,-5.3972 -7.00798,-10.4892 -8.02655,-14.983 -0.49049,-2.1639 -0.64032,-4.209 -0.51078,-6.1619 0.01,-0.1465 0.021,-0.293 0.034,-0.4395 0.15158,-1.7166 0.53566,-3.5942 1.30705,-5.6277 0.78096,-2.0586 2.0139,-4.4217 3.9764,-7.0312 1.87057,-2.4873 4.42129,-5.2204 7.88799,-8.1073 3.1775,-2.6556 7.22564,-5.3445 12.24477,-8.0105 4.88476,-2.5946 10.54426,-5.0909 16.96606,-7.4716 12.66562,-4.6953 27.72854,-8.7322 44.52563,-12.1725 34.51501,-7.0692 74.12379,-11.1652 109.23084,-13.6585 41.06411,-2.9163 80.58851,-3.9049 97.91051,-4.2656 0.023,-5e-4 2.7011,-0.055 2.7244,-0.055 16.7139,-0.3264 26.5769,-0.5822 32.8319,-0.9952 5.909,-0.3902 6.8972,-0.8432 6.9138,-1.1505 0.016,-0.2893 -0.9186,-0.896 -6.7873,-1.7923 -5.7803,-0.8829 -16.4919,-2.0444 -32.805,-3.0753 0.05,0 -2.7803,-0.1733 -2.7304,-0.1702 -18.9083,-1.1618 -55.4699,-3.0569 -98.61633,-2.7142 -35.42665,0.2814 -76.07248,2.0926 -112.25267,7.3751 -17.60387,2.5703 -34.07305,5.9502 -48.45688,10.367 -7.32453,2.2491 -14.1449,4.7778 -20.33975,7.6293 -6.34613,2.921 -12.11261,6.2157 -17.12954,9.9588 -5.02934,3.7457 -9.24963,7.7125 -12.68996,11.8726 -3.63193,4.3917 -6.36668,8.9663 -8.24956,13.6442 -1.8704,4.6469 -2.84893,9.2695 -3.09446,13.7363 -0.0205,0.3729 -0.0359,0.7455 -0.0464,1.1177 -0.14163,5.0443 0.6367,9.9342 2.14351,14.5553 3.06701,9.4058 8.99079,17.407 16.25894,24.0401 7.57411,6.9123 16.80845,12.4941 26.6555,16.8119 22.90031,10.0416 48.79484,13.3077 72.08002,12.5435 0.34116,-0.011 0.68173,-0.023 1.02168,-0.036 16.39909,-0.6206 32.36563,-3.5399 47.32078,-8.3255 14.77941,-4.7294 25.97195,-10.4544 32.76654,-14.2291 z m 1751.7487,0 c 7.1995,3.0375 18.8712,7.3431 33.7926,10.2284 15.0918,2.9182 30.6161,3.8384 46.1405,2.7046 0.3213,-0.023 0.6429,-0.048 0.9649,-0.074 22.2351,-1.7664 45.1043,-8.5823 63.2869,-20.0411 7.7965,-4.9134 14.2068,-10.3777 18.8798,-15.9975 4.4878,-5.3972 7.008,-10.4892 8.0266,-14.983 0.4905,-2.1639 0.6403,-4.209 0.5108,-6.1619 -0.01,-0.1465 -0.021,-0.293 -0.034,-0.4395 -0.1516,-1.7166 -0.5357,-3.5942 -1.3071,-5.6277 -0.7809,-2.0586 -2.0139,-4.4217 -3.9764,-7.0312 -1.8705,-2.4873 -4.4213,-5.2204 -7.888,-8.1073 -3.1775,-2.6556 -7.2256,-5.3445 -12.2447,-8.0105 -4.8848,-2.5946 -10.5443,-5.0909 -16.9661,-7.4716 -12.6656,-4.6953 -27.7285,-8.7322 -44.5256,-12.1725 -34.515,-7.0692 -74.1238,-11.1652 -109.2309,-13.6585 -41.0641,-2.9163 -80.5885,-3.9049 -97.9105,-4.2656 -0.023,-5e-4 -2.7011,-0.055 -2.7244,-0.055 -16.7139,-0.3264 -26.5769,-0.5822 -32.8319,-0.9952 -5.909,-0.3902 -6.8972,-0.8432 -6.9138,-1.1505 -0.016,-0.2893 0.9186,-0.896 6.7873,-1.7923 5.7803,-0.8829 16.4919,-2.0444 32.805,-3.0753 -0.05,0 2.7803,-0.1733 2.7304,-0.1702 18.9083,-1.1618 55.4699,-3.0569 98.6164,-2.7142 35.4266,0.2814 76.0724,2.0926 112.2526,7.3751 17.6039,2.5703 34.0731,5.9502 48.4569,10.367 7.3245,2.2491 14.1449,4.7778 20.3398,7.6293 6.3461,2.921 12.1126,6.2157 17.1295,9.9588 5.0293,3.7457 9.2496,7.7125 12.69,11.8726 3.6319,4.3917 6.3666,8.9663 8.2495,13.6442 1.8704,4.6469 2.8489,9.2695 3.0945,13.7363 0.021,0.3729 0.036,0.7455 0.046,1.1177 0.1416,5.0443 -0.6367,9.9342 -2.1435,14.5553 -3.067,9.4058 -8.9908,17.407 -16.259,24.0401 -7.5741,6.9123 -16.8084,12.4941 -26.6555,16.8119 -22.9003,10.0416 -48.7948,13.3077 -72.08,12.5435 -0.3412,-0.011 -0.6817,-0.023 -1.0217,-0.036 -16.3991,-0.6206 -32.3656,-3.5399 -47.3208,-8.3255 -14.7794,-4.7294 -25.9719,-10.4544 -32.7665,-14.2291 z"
         id="path3087"
         sodipodi:nodetypes="czc"
         class="UnoptimicedTransforms"
         transform="matrix(-1.1641986,0,0,-1.1641986,3461.1037,4164.0093)" />
      <path
         style="fill:#141313;fill-opacity:1;fill-rule:nonzero;stroke:none;stroke-width:25;stroke-linecap:round;stroke-linejoin:round;stroke-dasharray:none;stroke-dashoffset:1699.05;stroke-opacity:0.501754"
         d="m 1112.8981,2419.8218 c -7.7272,9.4825 -20.4259,24.148 -37.7755,39.9838 -17.584,16.0499 -37.0417,30.6751 -58.3099,43.3576 -0.4273,0.2547 -0.8562,0.5091 -1.2866,0.763 -29.03591,17.1268 -62.35449,30.4315 -96.85431,37.4173 -14.47906,2.9318 -28.31283,4.5665 -41.00035,5.0225 -12.29429,0.4418 -23.08609,-0.2395 -31.95846,-1.7234 -9.01172,-1.5072 -15.24237,-3.707 -19.02326,-5.8117 -1.46177,-0.8137 -2.35397,-1.4998 -2.87391,-1.9647 -0.13774,-0.1232 -0.24267,-0.2246 -0.32239,-0.3037 -0.18294,-0.1817 -0.21167,-0.2254 -0.18241,-0.1156 0.0317,0.1191 0.10468,0.3456 0.12861,0.6697 -0.0623,0.036 -0.26889,0.2745 -0.37526,-0.1591 -0.0962,-0.3922 -0.0276,-1.2677 0.56243,-2.6675 0.57756,-1.3703 1.57796,-3.0605 3.10212,-5.0294 1.50159,-1.9397 3.41713,-4.0294 5.73859,-6.2404 4.68264,-4.4598 10.65226,-9.0701 17.40678,-13.6607 6.94956,-4.7233 14.51036,-9.2777 21.92807,-13.4613 16.81738,-9.4849 34.68769,-18.0357 43.10994,-21.8843 0.43322,-0.198 0.85601,-0.3902 1.26796,-0.5765 7.71728,-3.4904 12.34328,-5.574 15.37539,-7.1514 2.82234,-1.4682 3.2068,-1.9858 3.12821,-2.2422 -0.0749,-0.2444 -0.69666,-0.4896 -3.8599,-0.032 -3.15166,0.4565 -8.64137,1.5958 -16.66937,3.6744 0.9478,-0.2454 -2.3083,0.5977 -1.36051,0.3523 -9.81207,2.5428 -27.63346,7.2025 -47.20827,14.1585 -8.28449,2.9439 -16.9611,6.3305 -25.22777,10.0956 -7.95897,3.6249 -15.70925,7.6777 -22.41382,12.1231 -3.3556,2.2249 -6.5323,4.6026 -9.38976,7.1438 -2.87939,2.5607 -5.54312,5.3834 -7.75499,8.5 -2.26088,3.1856 -4.14302,6.8117 -5.21093,10.8699 -1.12112,4.2603 -1.2749,8.7538 -0.25241,13.2491 0.58998,2.5645 1.55483,4.9322 2.77976,7.0749 1.25259,2.1911 2.75572,4.1111 4.37257,5.7763 0.71024,0.7315 1.44547,1.417 2.19658,2.0591 2.73128,2.3346 5.82519,4.2274 9.08806,5.7613 8.05176,3.7853 18.06678,5.8213 29.0398,6.503 11.09176,0.689 23.63819,0.023 37.03413,-1.9578 13.88112,-2.0521 28.5417,-5.4931 43.47522,-10.2382 35.64048,-11.3246 68.31774,-28.5319 96.75986,-48.0936 0.4216,-0.29 0.8416,-0.58 1.26,-0.87 20.8168,-14.4292 39.5448,-30.608 56.1931,-47.9123 16.4195,-17.0665 28.2244,-32.5553 35.3629,-42.4599 z m 481.8656,0 c 7.7272,9.4825 20.4259,24.148 37.7755,39.9838 17.584,16.0499 37.0417,30.6751 58.3099,43.3576 0.4273,0.2547 0.8562,0.5091 1.2866,0.763 29.0359,17.1268 62.3545,30.4315 96.8543,37.4173 14.4791,2.9318 28.3128,4.5665 41.0004,5.0225 12.2942,0.4418 23.086,-0.2395 31.9584,-1.7234 9.0117,-1.5072 15.2424,-3.707 19.0233,-5.8117 1.4617,-0.8137 2.3539,-1.4998 2.8739,-1.9647 0.1377,-0.1232 0.2427,-0.2246 0.3224,-0.3037 0.1829,-0.1817 0.2116,-0.2254 0.1824,-0.1156 -0.032,0.1191 -0.1047,0.3456 -0.1286,0.6697 0.062,0.036 0.2689,0.2745 0.3752,-0.1591 0.096,-0.3922 0.028,-1.2677 -0.5624,-2.6675 -0.5776,-1.3703 -1.578,-3.0605 -3.1021,-5.0294 -1.5016,-1.9397 -3.4171,-4.0294 -5.7386,-6.2404 -4.6826,-4.4598 -10.6523,-9.0701 -17.4068,-13.6607 -6.9495,-4.7233 -14.5103,-9.2777 -21.9281,-13.4613 -16.8173,-9.4849 -34.6876,-18.0357 -43.1099,-21.8843 -0.4332,-0.198 -0.856,-0.3902 -1.268,-0.5765 -7.7172,-3.4904 -12.3432,-5.574 -15.3753,-7.1514 -2.8224,-1.4682 -3.2068,-1.9858 -3.1283,-2.2422 0.075,-0.2444 0.6967,-0.4896 3.8599,-0.032 3.1517,0.4565 8.6414,1.5958 16.6694,3.6744 -0.9478,-0.2454 2.3083,0.5977 1.3605,0.3523 9.8121,2.5428 27.6335,7.2025 47.2083,14.1585 8.2845,2.9439 16.9611,6.3305 25.2278,10.0956 7.9589,3.6249 15.7092,7.6777 22.4138,12.1231 3.3556,2.2249 6.5323,4.6026 9.3897,7.1438 2.8794,2.5607 5.5432,5.3834 7.755,8.5 2.2609,3.1856 4.1431,6.8117 5.211,10.8699 1.1211,4.2603 1.2749,8.7538 0.2524,13.2491 -0.59,2.5645 -1.5549,4.9322 -2.7798,7.0749 -1.2526,2.1911 -2.7557,4.1111 -4.3726,5.7763 -0.7102,0.7315 -1.4454,1.417 -2.1965,2.0591 -2.7313,2.3346 -5.8252,4.2274 -9.0881,5.7613 -8.0518,3.7853 -18.0668,5.8213 -29.0398,6.503 -11.0918,0.689 -23.6382,0.023 -37.0341,-1.9578 -13.8811,-2.0521 -28.5417,-5.4931 -43.4752,-10.2382 -35.6405,-11.3246 -68.3178,-28.5319 -96.7599,-48.0936 -0.4216,-0.29 -0.8416,-0.58 -1.26,-0.87 -20.8168,-14.4292 -39.5448,-30.608 -56.1931,-47.9123 -16.4195,-17.0665 -28.2244,-32.5553 -35.3629,-42.4599 z"
         id="path3089"
         sodipodi:nodetypes="czc"
         class="UnoptimicedTransforms"
         transform="matrix(-1.1641986,0,0,-1.1641986,2899.0445,4274.2294)" />
      <path
         style="fill:#141313;fill-opacity:1;fill-rule:nonzero;stroke:none;stroke-width:40.9547;stroke-linecap:round;stroke-dasharray:none;stroke-dashoffset:0"
         d="m 811.70769,1463.51 c -0.1196,-0.429 -2.18776,-0.4292 -11.77756,1.2348 -9.50825,1.6498 -26.6126,5.0149 -52.60867,9.7749 -57.11053,10.4572 -135.34781,23.3044 -226.80921,31.7866 -16.39852,1.5208 -33.10481,2.868 -50.06627,4.012 -95.61572,6.4491 -203.69872,6.7233 -311.09594,-6.4977 -69.286748,-8.5294 -142.535334,-23.1992 -213.092083,-47.7364 -30.060336,-10.4539 -60.496937,-23.0344 -90.413897,-38.2684 -72.79436,-37.1072 -153.14461,-69.8266 -233.51675,-92.029 -81.08839,-22.4003 -155.4929,-32.2419 -218.65767,-28.7582 -26.18423,1.4441 -49.679,5.1309 -70.59651,10.7034 -7.04725,1.8775 -14.00591,4.0342 -20.83684,6.4905 -27.41172,9.8572 -51.53719,24.0974 -71.10616,43.0142 -20.83239,20.1381 -34.62273,43.7402 -43.12893,68.9657 -11.91659,35.3392 -12.32432,70.7013 -11.35696,94.0154 0.98511,-23.7418 5.26989,-57.9355 20.7629,-90.2067 10.93375,-22.7745 26.2875,-42.2674 46.67053,-57.8207 19.08932,-14.566 41.5181,-24.8676 66.53274,-31.7786 6.25987,-1.7294 12.62966,-3.2322 19.0852,-4.5316 19.15406,-3.8554 40.77617,-6.1697 65.11967,-6.5157 58.90254,-0.8374 129.08908,9.9519 207.25599,32.6447 77.43265,22.4797 155.12072,54.4404 226.31211,90.2738 31.78322,16.0225 63.981232,29.061 95.589632,39.7069 74.2103269,24.9944 150.475997,38.3907 221.800398,45.0164 110.4941,10.2644 220.4156,5.3165 316.56674,-4.9126 17.08602,-1.8177 33.89915,-3.8198 50.38237,-5.9655 91.00843,-11.8468 170.92396,-28.6157 226.5052,-42.958 25.70829,-6.6338 42.44707,-11.7625 51.6061,-14.9062 9.23647,-3.1703 10.9809,-4.3701 10.87387,-4.754 z m 952.78251,0 c 0.1196,-0.429 2.1877,-0.4292 11.7775,1.2348 9.5083,1.6498 26.6126,5.0149 52.6087,9.7749 57.1105,10.4572 135.3478,23.3044 226.8092,31.7866 16.3985,1.5208 33.1048,2.868 50.0663,4.012 95.6157,6.4491 203.6987,6.7233 311.0959,-6.4977 69.2868,-8.5294 142.5354,-23.1992 213.0921,-47.7364 30.0603,-10.4539 60.4969,-23.0344 90.4139,-38.2684 72.7944,-37.1072 153.1446,-69.8266 233.5168,-92.029 81.0883,-22.4003 155.4929,-32.2419 218.6576,-28.7582 26.1843,1.4441 49.679,5.1309 70.5965,10.7034 7.0473,1.8775 14.0059,4.0342 20.8369,6.4905 27.4117,9.8572 51.5372,24.0974 71.1061,43.0142 20.8324,20.1381 34.6228,43.7402 43.129,68.9657 11.9166,35.3392 12.3243,70.7013 11.3569,94.0154 -0.9851,-23.7418 -5.2699,-57.9355 -20.7629,-90.2067 -10.9337,-22.7745 -26.2875,-42.2674 -46.6705,-57.8207 -19.0893,-14.566 -41.5181,-24.8676 -66.5327,-31.7786 -6.2599,-1.7294 -12.6297,-3.2322 -19.0852,-4.5316 -19.1541,-3.8554 -40.7762,-6.1697 -65.1197,-6.5157 -58.9025,-0.8374 -129.0891,9.9519 -207.256,32.6447 -77.4327,22.4797 -155.1207,54.4404 -226.3121,90.2738 -31.7832,16.0225 -63.9812,29.061 -95.5896,39.7069 -74.2104,24.9944 -150.476,38.3907 -221.8004,45.0164 -110.4941,10.2644 -220.4156,5.3165 -316.5668,-4.9126 -17.086,-1.8177 -33.8991,-3.8198 -50.3823,-5.9655 -91.0085,-11.8468 -170.924,-28.6157 -226.5053,-42.958 -25.7082,-6.6338 -42.447,-11.7625 -51.606,-14.9062 -9.2365,-3.1703 -10.9809,-4.3701 -10.8739,-4.754 z"
         id="path501"
         sodipodi:nodetypes="csc"
         inkscape:path-effect="#path-effect1058;#path-effect1064"
         inkscape:original-d="m 811.70769,1463.51 c 0,0 -585.97425,163.3429 -964.59399,-28.4606 -300.36403,-152.1602 -660.46946,-201.1703 -660.46946,85.1684"
         inkscape:linked-fill="path1062"
         class="UnoptimicedTransforms"
         transform="translate(34.817817,-8.7044544)" />
      <path
         style="fill:#141313;fill-opacity:1;fill-rule:nonzero;stroke:none;stroke-width:40.9547;stroke-linecap:round;stroke-dasharray:none;stroke-dashoffset:0"
         d="m 974.05419,1423.4504 c -4.57067,-6.1312 -10.51193,-14.6929 -17.52746,-24.5965 -6.78383,-9.5765 -14.11421,-19.7498 -21.12584,-28.2901 -5.57298,-6.788 -11.04394,-12.6824 -16.6184,-17.411 -0.86827,-0.7365 -1.73626,-1.4424 -2.60456,-2.117 -4.56449,-3.5461 -9.58891,-6.6898 -15.0585,-9.163 -5.95346,-2.6919 -12.2451,-4.5056 -18.91269,-5.3196 -6.36613,-0.7772 -12.68034,-0.5976 -19.01553,0.2926 -12.4886,1.7548 -25.26137,6.3604 -37.89605,11.1723 -4.4441,1.6925 -8.9571,3.4488 -13.52625,5.1999 -10.63788,4.0768 -21.51731,8.2452 -34.27406,12.7637 -19.59021,6.9388 -42.20034,14.1864 -69.51137,21.3401 -9.02915,2.365 -18.58477,4.7227 -28.70969,7.0511 -29.52573,6.7902 -63.9675,13.7663 -107.81462,19.7315 -43.28162,5.8883 -82.97916,8.9794 -108.69387,10.403 26.0989,0.7683 65.20908,1.8446 109.57789,0.8928 43.72976,-0.9381 81.12087,-3.6345 111.12758,-7.5103 10.58174,-1.3668 20.60328,-2.8754 30.11657,-4.4956 28.82896,-4.9098 52.84868,-10.8177 73.72654,-16.8985 13.46926,-3.9231 25.09759,-7.757 35.889,-11.3577 4.63088,-1.5452 9.22496,-3.0605 13.52495,-4.4267 13.05244,-4.1469 22.79368,-6.7239 31.16773,-7.672 3.93273,-0.4452 7.35939,-0.5056 10.54534,-0.2867 3.32207,0.2282 6.67961,0.781 10.31307,1.7316 3.43942,0.9 7.04599,2.1339 11.09953,3.7489 0.76089,0.3032 1.54676,0.62 2.36221,0.9547 5.37227,2.2052 11.36808,4.9226 18.63961,8.8065 9.2851,4.9593 19.05385,10.9806 28.95607,17.697 9.62564,6.5288 18.57797,13.1865 24.2428,17.759 z m 294.96291,0 c 4.5707,-6.1312 10.512,-14.6929 17.5275,-24.5965 6.7838,-9.5765 14.1142,-19.7498 21.1258,-28.2901 5.573,-6.788 11.044,-12.6824 16.6184,-17.411 0.8683,-0.7365 1.7363,-1.4424 2.6046,-2.117 4.5645,-3.5461 9.5889,-6.6898 15.0585,-9.163 5.9535,-2.6919 12.2451,-4.5056 18.9127,-5.3196 6.3661,-0.7772 12.6803,-0.5976 19.0155,0.2926 12.4886,1.7548 25.2614,6.3604 37.8961,11.1723 4.4441,1.6925 8.9571,3.4488 13.5262,5.1999 10.6379,4.0768 21.5173,8.2452 34.2741,12.7637 19.5902,6.9388 42.2003,14.1864 69.5113,21.3401 9.0292,2.365 18.5848,4.7227 28.7097,7.0511 29.5258,6.7902 63.9675,13.7663 107.8147,19.7315 43.2816,5.8883 82.9791,8.9794 108.6938,10.403 -26.0989,0.7683 -65.2091,1.8446 -109.5779,0.8928 -43.7297,-0.9381 -81.1208,-3.6345 -111.1276,-7.5103 -10.5817,-1.3668 -20.6032,-2.8754 -30.1165,-4.4956 -28.829,-4.9098 -52.8487,-10.8177 -73.7266,-16.8985 -13.4692,-3.9231 -25.0975,-7.757 -35.889,-11.3577 -4.6308,-1.5452 -9.2249,-3.0605 -13.5249,-4.4267 -13.0524,-4.1469 -22.7937,-6.7239 -31.1677,-7.672 -3.9328,-0.4452 -7.3594,-0.5056 -10.5454,-0.2867 -3.3221,0.2282 -6.6796,0.781 -10.313,1.7316 -3.4395,0.9 -7.046,2.1339 -11.0996,3.7489 -0.7609,0.3032 -1.5467,0.62 -2.3622,0.9547 -5.3723,2.2052 -11.3681,4.9226 -18.6396,8.8065 -9.2851,4.9593 -19.0538,10.9806 -28.9561,17.697 -9.6256,6.5288 -18.5779,13.1865 -24.2428,17.759 z"
         id="path1144"
         sodipodi:nodetypes="cc"
         inkscape:path-effect="#path-effect1148;#path-effect1152"
         inkscape:original-d="m 974.05419,1423.4504 c -147.3929,-153.1793 -63.62466,-4.7347 -511.28889,1.057"
         inkscape:linked-fill="path1062"
         class="UnoptimicedTransforms"
         transform="translate(201.38109,105.14892)" />
      <path
         style="fill:#141313;fill-opacity:1;fill-rule:nonzero;stroke:none;stroke-width:40.9547;stroke-linecap:round;stroke-dasharray:none;stroke-dashoffset:0"
         d="m 976.07789,1368.9053 c -6.80548,-6.3112 -16.91236,-15.576 -28.88953,-24.9432 -12.11213,-9.4727 -25.03943,-18.1986 -38.62129,-25.1163 -12.00183,-6.113 -23.56438,-10.3268 -34.65056,-12.7766 -8.17791,-1.8072 -16.60881,-2.8556 -25.28516,-3.0157 -18.16908,-0.3352 -35.23158,3.2492 -51.67373,9.2447 -15.70696,5.7273 -30.25392,13.4789 -41.94344,19.8213 -4.11194,2.231 -7.96545,4.3434 -11.55355,6.2774 -8.33064,4.4904 -15.3808,8.082 -22.17739,10.8811 -5.11997,2.1086 -9.9142,3.6855 -14.55875,4.6983 -4.74613,1.0349 -9.56967,1.5328 -14.6252,1.2687 -3.32656,-0.1738 -6.84899,-0.6821 -10.60667,-1.6412 -2.02324,-0.5165 -4.20324,-1.165 -6.54472,-1.9994 -6.25392,-2.2287 -13.32083,-5.6654 -21.30427,-11.0149 -10.06755,-6.746 -20.16798,-15.5837 -30.12195,-25.9258 -9.7681,-10.149 -18.17186,-20.4947 -23.65294,-27.6728 4.36623,7.8579 10.91439,19.577 18.61111,31.6361 7.78606,12.199 16.12078,23.7774 24.99927,33.5794 7.10366,7.8426 14.14287,14.0943 21.23418,18.8742 2.66799,1.7984 5.29177,3.3533 7.86458,4.6859 4.7851,2.4786 9.64991,4.4018 14.60882,5.7777 7.62284,2.115 15.2908,2.8873 22.9778,2.5083 7.45231,-0.3675 14.75385,-1.8073 21.91432,-4.0065 9.30919,-2.859 18.33588,-6.984 27.32896,-11.7273 3.9582,-2.0877 7.93817,-4.3139 12.0639,-6.6751 11.9575,-6.8435 24.31971,-14.3613 37.36294,-20.473 13.30861,-6.236 26.52672,-10.6346 40.95014,-12.4205 6.95801,-0.8615 13.92308,-1.0792 20.98639,-0.7049 9.58172,0.5076 20.18988,1.9912 32.15411,5.239 13.62129,3.6977 27.25722,9.2163 40.7559,16.1483 13.2706,6.8148 24.74676,14.1602 32.39673,19.4728 z m 2840.90971,0 c 6.8055,-6.3112 16.9124,-15.576 28.8895,-24.9432 12.1122,-9.4727 25.0395,-18.1986 38.6213,-25.1163 12.0019,-6.113 23.5644,-10.3268 34.6506,-12.7766 8.1779,-1.8072 16.6088,-2.8556 25.2852,-3.0157 18.169,-0.3352 35.2315,3.2492 51.6737,9.2447 15.7069,5.7273 30.2539,13.4789 41.9434,19.8213 4.112,2.231 7.9655,4.3434 11.5536,6.2774 8.3306,4.4904 15.3808,8.082 22.1774,10.8811 5.1199,2.1086 9.9142,3.6855 14.5587,4.6983 4.7461,1.0349 9.5697,1.5328 14.6252,1.2687 3.3266,-0.1738 6.849,-0.6821 10.6067,-1.6412 2.0232,-0.5165 4.2032,-1.165 6.5447,-1.9994 6.2539,-2.2287 13.3208,-5.6654 21.3043,-11.0149 10.0675,-6.746 20.168,-15.5837 30.1219,-25.9258 9.7681,-10.149 18.1719,-20.4947 23.653,-27.6728 -4.3663,7.8579 -10.9144,19.577 -18.6112,31.6361 -7.786,12.199 -16.1207,23.7774 -24.9992,33.5794 -7.1037,7.8426 -14.1429,14.0943 -21.2342,18.8742 -2.668,1.7984 -5.2918,3.3533 -7.8646,4.6859 -4.7851,2.4786 -9.6499,4.4018 -14.6088,5.7777 -7.6228,2.115 -15.2908,2.8873 -22.9778,2.5083 -7.4523,-0.3675 -14.7539,-1.8073 -21.9143,-4.0065 -9.3092,-2.859 -18.3359,-6.984 -27.329,-11.7273 -3.9582,-2.0877 -7.9381,-4.3139 -12.0639,-6.6751 -11.9575,-6.8435 -24.3197,-14.3613 -37.3629,-20.473 -13.3086,-6.236 -26.5267,-10.6346 -40.9502,-12.4205 -6.958,-0.8615 -13.923,-1.0792 -20.9863,-0.7049 -9.5818,0.5076 -20.1899,1.9912 -32.1542,5.239 -13.6213,3.6977 -27.2572,9.2163 -40.7559,16.1483 -13.2706,6.8148 -24.7467,14.1602 -32.3967,19.4728 z"
         id="path1154"
         sodipodi:nodetypes="cc"
         inkscape:path-effect="#path-effect1158;#path-effect1162"
         inkscape:original-d="M 976.07789,1368.9053 C 766.96408,1200.7118 743.03485,1505.6736 599.86874,1286.9909"
         inkscape:linked-fill="path1062"
         class="UnoptimicedTransforms"
         transform="translate(-1073.616,143.66805)" />
    </g>
  </g>
  <g
     inkscape:groupmode="layer"
     id="layer3"
     inkscape:label="arrow"
     style="display:none"
     transform="translate(-39.921517,-1240.4216)">
    <path
       style="display:inline;fill:#ffffff;fill-opacity:1;fill-rule:evenodd;stroke:none;stroke-width:70;stroke-linecap:round;stroke-dasharray:none;stroke-dashoffset:1699.05"
       d="m 265.8243,1320.2974 c -2.61315,-210.2075 131.48753,-119.4273 211.31941,-109.552 115.91792,-217.76176 377.71199,-179.1876 597.86729,-14.4901 128.2949,95.977 179.7298,-37.7161 219.548,-93.9854 C 1440.0149,896.71835 1226.572,748.68369 1078.9793,882.06841 1014.953,762.5788 914.68274,388.05835 1315.3179,436.09645 c 464.4272,55.68706 1187.6453,898.56515 1187.6453,898.56515 m -2237.1389,25.9589 c -2.61315,210.2075 131.48753,119.4273 211.31941,109.552 115.91792,217.7617 377.71199,179.1876 597.86729,14.4901 128.2949,-95.977 179.7298,37.7161 219.548,93.9854 145.4559,205.5515 -67.987,353.5862 -215.5797,220.2015 -64.0263,119.4896 -164.29656,494.01 236.3386,445.9719 464.4272,-55.687 1187.6453,-898.5651 1187.6453,-898.5651"
       id="path2240"
       sodipodi:nodetypes="ccsscsc"
       inkscape:path-effect="#path-effect2242"
       inkscape:original-d="m 265.8243,1320.2974 c -2.61315,-210.2075 131.48753,-119.4273 211.31941,-109.552 115.91792,-217.76176 377.71199,-179.1876 597.86729,-14.4901 128.2949,95.977 179.7298,-37.7161 219.548,-93.9854 C 1440.0149,896.71835 1226.572,748.68369 1078.9793,882.06841 1014.953,762.5788 914.68274,388.05835 1315.3179,436.09645 c 464.4272,55.68706 1187.6453,898.56515 1187.6453,898.56515"
       class="UnoptimicedTransforms"
       transform="matrix(0.90766051,0,0,1.3205792,18.244286,-424.09959)" />
    <path
       style="fill:#000000;fill-opacity:1;fill-rule:nonzero;stroke:none;stroke-width:59.3232;stroke-linecap:round;stroke-dasharray:none;stroke-dashoffset:1699.05;stroke-opacity:1"
       d="m 1767.1122,1086.2049 c -20.0882,34.4569 -50.2353,63.5039 -84.8633,85.1642 -42.6099,26.7366 -92.7549,41.9364 -143.6092,48.8765 -73.6733,9.7833 -147.0305,16.7606 -218.2715,22.2484 -95.5737,7.3575 -187.0593,11.7856 -273.4876,14.1163 -114.42358,3.0838 -215.62384,2.3475 -305.08576,-0.5728 -97.40629,-3.1813 -173.60119,-8.7034 -229.05411,-13.637 -54.33839,-4.8344 -84.59192,-8.5241 -84.59192,-8.5241 0,0 29.83052,6.2028 83.76604,15.0566 54.79636,8.9952 131.18309,19.968 228.47428,29.1781 89.34934,8.4599 191.50435,14.9805 306.61417,17.3336 87.0621,1.7814 179.6038,1.1565 276.3617,-3.0337 72.1282,-3.1191 146.6829,-8.1219 222.0637,-16.525 57.4501,-6.2741 115.5608,-23.2314 167.5003,-54.5591 42.3677,-25.6241 79.3945,-61.2908 105.3149,-105.0421 77.2366,-131.29193 33.8797,-302.44616 -130.1511,-377.29483 -197.7255,-90.22378 -388.054,46.81293 -373.2722,196.79634 2.875,28.1218 15.6869,52.35188 32.0858,69.99739 l 0,0 c 17.7653,18.907 37.4066,28.9993 51.4581,34.4167 14.1765,5.4657 23.2047,6.7435 23.2047,6.7435 0,0 -5.445,-7.3784 -13.0774,-19.3957 -7.6504,-12.0454 -17.0413,-28.44045 -23.48,-46.62699 0,0 0,0 0,0 -5.9391,-16.57944 -9.5757,-33.9093 -11.154,-50.9534 -9.3861,-95.2354 124.4262,-212.38173 289.608,-137.00788 133.6604,60.99037 162.7575,192.76413 103.6464,293.24497 z m 0,495.4829 c -20.0882,-34.4569 -50.2353,-63.5039 -84.8633,-85.1641 -42.6099,-26.7367 -92.7549,-41.9364 -143.6092,-48.8766 -73.6733,-9.7833 -147.0305,-16.7606 -218.2715,-22.2484 -95.5737,-7.3574 -187.0593,-11.7855 -273.4876,-14.1163 -114.42358,-3.0838 -215.62384,-2.3474 -305.08576,0.5728 -97.40629,3.1813 -173.60119,8.7034 -229.05411,13.637 -54.33839,4.8345 -84.59192,8.5241 -84.59192,8.5241 0,0 29.83052,-6.2028 83.76604,-15.0566 54.79636,-8.9952 131.18309,-19.9679 228.47428,-29.1781 89.34934,-8.4599 191.50435,-14.9805 306.61417,-17.3336 87.0621,-1.7813 179.6038,-1.1565 276.3617,3.0337 72.1282,3.1192 146.6829,8.1219 222.0637,16.525 57.4501,6.2742 115.5608,23.2315 167.5003,54.5591 42.3677,25.6241 79.3945,61.2908 105.3149,105.0422 77.2366,131.2918 33.8797,302.4461 -130.1511,377.2947 -197.7255,90.2238 -388.054,-46.8129 -373.2722,-196.7963 2.875,-28.1218 15.6869,-52.3519 32.0858,-69.9974 l 0,0 c 17.7653,-18.907 37.4066,-28.9993 51.4581,-34.4167 14.1765,-5.4657 23.2047,-6.7435 23.2047,-6.7435 0,0 -5.445,7.3785 -13.0774,19.3957 -7.6504,12.0455 -17.0413,28.4405 -23.48,46.627 0,0 0,0 0,0 -5.9391,16.5794 -9.5757,33.9093 -11.154,50.9534 -9.3861,95.2354 124.4262,212.3817 289.608,137.0079 133.6604,-60.9904 162.7575,-192.7641 103.6464,-293.245 z"
       id="path793"
       class="UnoptimicedTransforms"
       sodipodi:nodetypes="cszc"
       inkscape:original-d="m 428.14881,1233.8764 c 411.39438,63.4122 867.42549,44.261 1113.88539,14.1894 319.8195,-39.0225 376.2473,-371.43506 133.7451,-482.09085 -242.5022,-110.6558 -450.3845,153.56865 -254.2101,280.96895"
       inkscape:path-effect="#path-effect2859;#path-effect1350"
       transform="matrix(0.66292272,0,0,2.1003113,58.378914,-1455.62)" />
    <path
       style="fill:#000000;fill-opacity:1;fill-rule:nonzero;stroke:none;stroke-width:49.7503;stroke-linecap:round;stroke-dasharray:99.5005, 49.7503;stroke-dashoffset:0;stroke-opacity:1"
       d="M 282.91746,981.3939 C 231.39143,954.74211 179.83268,929.89254 127.50906,907.89742 74.779206,885.72729 23.611278,867.58409 -26.677605,853.53828 -85.649728,837.07397 -140.06853,827.30319 -188.35898,821.8423 c 0,0 -3e-5,0 -3e-5,0 -108.03911,-12.20493 -177.77693,-4.77844 -177.77693,-4.77844 0,0 70.12333,3.04352 174.25646,26.01473 0,0 3e-5,1e-5 3e-5,1e-5 46.62285,10.27947 98.269604,24.67843 154.174348,44.94863 47.773538,17.31505 95.898647,37.8816 146.538222,61.77946 50.50436,23.83743 99.77301,49.17574 151.23255,75.77861 102.30429,52.901 194.66362,101.0466 290.23205,146.1724 106.99047,50.5172 198.89489,88.3524 269.37993,115.4384 68.82814,26.4492 111.16735,40.5156 111.16735,40.5156 0,0 -40.06614,-19.649 -105.50494,-53.1891 -69.34848,-35.544 -152.1884,-79.2171 -257.40324,-137.2704 -83.95978,-46.3257 -190.01524,-106.7294 -285.01936,-155.8583 z"
       id="path1502"
       class="UnoptimicedTransforms"
       sodipodi:nodetypes="cc"
       inkscape:original-d="M -366.13594,817.06386 C 92.836641,824.05948 297.54966,1063.0288 930.845,1327.7117"
       inkscape:path-effect="#path-effect1506;#path-effect2857"
       transform="matrix(0.85451053,0,0,2.316797,1501.1608,-1742.0128)" />
    <path
       style="fill:none;fill-rule:evenodd;stroke:#000000;stroke-width:59.3232;stroke-linecap:round;stroke-dasharray:none;stroke-dashoffset:1699.05;stroke-opacity:1"
       d="M 587.52161,1228.6555 C 927.99996,782.11284 2957.9922,2016.7655 2772.4957,1585.323 M 587.52161,1439.2372 C 927.99996,1885.7799 2957.9922,651.12722 2772.4957,1082.5697"
       id="path1508"
       class="UnoptimicedTransforms"
       sodipodi:nodetypes="cc"
       inkscape:original-d="M 587.52161,1228.6555 C 927.99996,782.11284 2957.9922,2016.7655 2772.4957,1585.323"
       inkscape:path-effect="#path-effect1512"
       transform="matrix(0.66292272,0,0,2.1003113,58.378914,-1455.62)" />
  </g>
  <g
     inkscape:groupmode="layer"
     id="layer2"
     inkscape:label="border"
     style="display:none"
     transform="translate(-39.921517,-1240.4216)">
    <path
       id="path3432"
       style="display:inline;fill:#141313;fill-opacity:1;fill-rule:evenodd;stroke:#141313;stroke-width:150;stroke-linecap:round;stroke-linejoin:miter;stroke-dasharray:none;stroke-dashoffset:1699.05;stroke-opacity:1"
       d="M 316.51564,65.243964 A 254.53322,254.53322 0 0 1 74.704682,307.05492 V 2319.26 A 254.53322,254.53322 0 0 1 317.11267,2561.6685 H 2329.3182 a 254.53322,254.53322 0 0 1 241.811,-241.811 V 307.05443 A 254.53322,254.53322 0 0 1 2329.3182,65.243964 Z" />
    <path
       id="path1748"
       style="display:inline;fill:none;fill-opacity:1;fill-rule:evenodd;stroke:#fff2f2;stroke-width:25;stroke-linecap:round;stroke-linejoin:round;stroke-dasharray:none;stroke-dashoffset:1699.05;stroke-opacity:1"
       d="M 316.51564,74.704682 A 254.53322,254.53322 0 0 1 74.704682,316.51564 V 2328.7207 A 254.53322,254.53322 0 0 1 317.11267,2571.1292 H 2329.3182 a 254.53322,254.53322 0 0 1 241.811,-241.811 V 316.51515 A 254.53322,254.53322 0 0 1 2329.3182,74.704682 Z" />
  </g>
</svg>
